<svg xmlns="http://www.w3.org/2000/svg" width="22" height="22" fill="none" viewBox="0 0 22 22"><path fill="#FF4E15" d="M2.425 1.9A1.92 1.92 0 00.5 3.825 1.92 1.92 0 002.425 5.75h3.239c.467 0 .467-.7 0-.7H2.425A1.22 1.22 0 011.2 3.826c0-.675.54-1.225 1.225-1.225h1.226c.467 0 .467-.7 0-.7H2.425z"></path><path fill="#FF6B3C" d="M11.396 8.02l-1.049 1.75a.35.35 0 00.008.374l.7 1.05c.258.391.845.001.584-.388l-.579-.866.938-1.56a.35.35 0 10-.602-.36zM13.146 8.02l-1.049 1.75a.35.35 0 00.008.374l.7 1.05c.259.389.842.001.584-.388l-.579-.866.938-1.56a.35.35 0 10-.602-.36zM9.646 8.02L8.597 9.77a.35.35 0 00.008.374l.7 1.05c.259.389.842.001.584-.388L9.31 9.94l.938-1.56a.35.35 0 10-.602-.36z"></path><path fill="#FF6B3C" d="M12.047 16.6c2.466-.222 4.37-1.786 4.37-4.092 0-1.96-1.503-3.741-3.407-4.371h-.613V2.6l1.4.002c4.072 0 7.7 3.433 7.7 7.697 0 4.265-3.15 7.698-8.05 7.698h-1.378l-.022-1.398z"></path><path fill="#FF6B3C" d="M10.31 17.535a3.33 3.33 0 01-2.353-4.074.35.35 0 01.248-.248 3.328 3.328 0 014.074 4.074.35.35 0 01-.245.248 3.315 3.315 0 01-1.723 0zM5.047 2.248a.35.35 0 00-.352.352c0 3.354 2.262 5.95 5.25 5.95h2.662c.662 0 1.239-.4 1.627-.975.388-.574.613-1.338.613-2.177 0-.84-.225-1.6-.613-2.176-.388-.575-.965-.974-1.627-.974h-7.56z"></path><path fill="#FF4E15" d="M20.802 9.6c0 4.264-3.15 7.697-8.05 7.697h-.69l.011.7h1.378c4.9 0 8.05-3.433 8.05-7.698 0-2.277-1.04-4.31-2.623-5.717 1.182 1.346 1.924 3.095 1.924 5.017z"></path><path fill="#FF5D29" d="M10.852 15.347c.212-.181.095-.649-.2-.848-.294-.2-.776-.15-.867.128-.064.197.147.237.442.436.294.2.413.465.625.284z"></path><path fill="#FF4E15" d="M17.4 3.535c.3 2.827-.959 4.821-2.314 5.905.165.168.317.347.455.535 1.425-1.147 2.717-3.196 2.596-5.98a7.912 7.912 0 00-.736-.46zM16.344 11.74c.046.228.07.461.075.697 2.114-.377 4.004-1.712 4.925-3.662a7.468 7.468 0 00-.324-1.116c-.62 2.155-2.505 3.676-4.676 4.08zM20.872 13.442a5.52 5.52 0 01-2.774.755c-.652 0-1.3-.122-1.916-.353a3.602 3.602 0 01-.307.634 6.171 6.171 0 002.223.418c.765 0 1.52-.147 2.234-.423.206-.327.386-.672.54-1.032zM15.05 15.428c-.178.15-.369.288-.573.411.573.627 1.263 1.218 2.315 1.55a7.807 7.807 0 001.016-.492c-1.396-.19-2.098-.752-2.759-1.469zM12.969 16.448c.107.525.342 1.032.726 1.545.294-.007.581-.027.861-.059-.555-.612-.818-1.135-.913-1.696a5.717 5.717 0 01-.674.21z"></path><path fill="#FFA88D" d="M12.286 16.6c2.466-.221 4.37-1.786 4.37-4.092 0-1.96-1.502-3.741-3.406-4.371h-.24c1.904.63 3.406 2.41 3.406 4.371 0 2.306-1.904 3.87-4.37 4.092h.24z"></path><path fill="#FF4E15" d="M9.54 17.215a3.338 3.338 0 001.634.434c.29.001.581-.036.868-.113a.35.35 0 00.246-.248 3.32 3.32 0 00.105-.993 3.303 3.303 0 00-.52-.044 3.317 3.317 0 00-2.334.964z"></path><path fill="#FFA88D" d="M4.965 2.746c-.118.01-.216.114-.246.263.004.08.005.163.013.242.048.155.167.254.292.245.156-.012.27-.19.254-.397-.015-.193-.138-.346-.284-.354l-.03.001zM16.198 11.213c.1.037.2.037.285-.003.213-.098.28-.406.151-.688-.102-.224-.304-.372-.497-.364a.333.333 0 00-.124.03.363.363 0 00-.185.212c.152.259.274.532.37.813z"></path><path fill="#FF5D29" d="M18.787 7.798c-.342-.507-.8-.71-.488-1.075.312-.364 1.116-.164 1.458.343.342.507.258 1.335-.22 1.492-.337.11-.408-.254-.75-.76zM11.6 4.822c-.343-.506-.8-.71-.488-1.074.312-.365 1.116-.164 1.458.343.342.506.258 1.334-.22 1.491-.338.11-.408-.253-.75-.76z"></path><path fill="#FF4E15" d="M13.54 2.531c.384.574.607 1.332.607 2.167 0 .835-.225 1.603-.613 2.178-.388.574-.965.974-1.627.974H9.245c-1.2 0-2.277-.424-3.143-1.141.944 1.14 2.294 1.84 3.843 1.84h2.662c.663 0 1.24-.399 1.627-.973.388-.575.613-1.34.613-2.178 0-.84-.225-1.6-.613-2.176a2.414 2.414 0 00-.695-.69z"></path><path fill="#FFA88D" d="M5.054 2.248a.35.35 0 00-.35.35V2.6c0 1.813.664 3.4 1.743 4.48-.925-1.11-1.481-2.62-1.481-4.318-.001-.203.162-.368.365-.369h7.93c.011 0 .022.003.034.003a1.671 1.671 0 00-.68-.148h-7.56z"></path><path fill="#FF4E15" d="M4.175.5A1.92 1.92 0 002.25 2.425 1.92 1.92 0 004.175 4.35H6.45c.467 0 .467-.7 0-.7H4.175A1.22 1.22 0 012.95 2.425c0-.675.54-1.224 1.225-1.224H13.8c.467 0 .467-.7 0-.7H4.175V.5z"></path><path fill="#FFA88D" d="M8.827 16.676c.42.42.936.711 1.49.86.186.05.377.077.57.094a3.319 3.319 0 01-1.878-.938 3.33 3.33 0 01-.863-3.213.35.35 0 01.248-.249 3.33 3.33 0 011.156-.094 3.366 3.366 0 00-.47-.036c-.289 0-.58.036-.867.113a.35.35 0 00-.248.248 3.33 3.33 0 00.863 3.214z"></path><path fill="#FF6B3C" d="M11.172 16.95a3.317 3.317 0 00-2.344.974 3.33 3.33 0 00-.863 3.214.35.35 0 00.248.248 3.327 3.327 0 004.074-4.074.35.35 0 00-.245-.248 3.32 3.32 0 00-.87-.113z"></path><path fill="#FFA88D" d="M8.602 18.183c.01.04.03.072.058.096.095.08.257.042.362-.084.104-.125.112-.29.017-.37a.166.166 0 00-.06-.032c-.05.044-.102.083-.15.13-.082.083-.155.171-.227.26z"></path><path fill="#FF5D29" d="M10.665 18.578c.211.181.095.65-.2.848-.294.2-.777.15-.867-.128-.065-.196.147-.237.441-.436.295-.2.413-.465.625-.284z"></path><path fill="#FF4E15" d="M10.727 19.826a3.326 3.326 0 01-2.836.935c.018.126.04.252.074.378a.35.35 0 00.248.248 3.328 3.328 0 004.075-4.074.35.35 0 00-.246-.248 3.37 3.37 0 00-.38-.076 3.323 3.323 0 01-.935 2.837z"></path><path fill="#FFA88D" d="M7.965 21.138c.014.053.04.101.077.142a.363.363 0 01-.023-.06 3.33 3.33 0 014.077-4.074.35.35 0 01.168.105.35.35 0 00-.223-.188 3.315 3.315 0 00-1.723 0 3.33 3.33 0 00-2.353 4.074zM8.252 15.796c.047.006.091 0 .13-.02.127-.067.158-.258.07-.426-.09-.167-.264-.25-.391-.182a.196.196 0 00-.061.05c.025.073.044.147.074.218.052.125.115.243.179.36z"></path></svg>