<svg width="800" height="800" viewBox="0 0 800 800" fill="none" xmlns="http://www.w3.org/2000/svg">
<g clip-path="url(#clip0_466_61)">
<path d="M400 0C179.063 0 0 179.063 0 400C0 620.937 179.063 800 400 800C620.937 800 800 620.937 800 400C800 179.063 620.937 0 400 0ZM559.688 337.813C559.844 341.25 559.844 344.844 559.844 348.438C559.844 457.031 477.188 582.344 325.938 582.344C279.531 582.344 236.25 568.75 200 545.469C206.406 546.25 212.969 546.562 219.688 546.562C258.125 546.562 293.594 533.437 321.719 511.406C285.781 510.781 255.313 487.031 245 454.375C250 455.312 255.156 455.781 260.469 455.781C267.969 455.781 275.313 454.844 282.188 452.812C244.531 445.312 216.25 412.031 216.25 372.188V371.25C227.344 377.344 240 381.094 253.437 381.563C231.406 366.875 216.875 341.562 216.875 313.125C216.875 298.125 220.937 283.906 227.969 271.719C268.594 321.562 329.063 354.219 397.344 357.656C395.938 351.719 395.156 345.469 395.156 338.906C395.156 293.594 432.031 256.719 477.344 256.719C500.938 256.719 522.344 266.719 537.344 282.656C556.094 278.906 573.594 272.188 589.531 262.656C583.437 281.875 570.313 297.969 553.438 308.125C570 306.094 585.937 301.719 600.625 295.156C589.687 311.719 575.781 326.094 559.688 337.813Z" fill="white"/>
</g>
<defs>
<clipPath id="clip0_466_61">
<rect width="800" height="800" fill="white"/>
</clipPath>
</defs>
</svg>
